<?xml version="1.0" standalone="no"?><!DOCTYPE svg PUBLIC "-//W3C//DTD SVG 1.1//EN" "http://www.w3.org/Graphics/SVG/1.1/DTD/svg11.dtd"><svg t="1547530923363" class="icon" style="" viewBox="0 0 1024 1024" version="1.1" xmlns="http://www.w3.org/2000/svg" p-id="1419" xmlns:xlink="http://www.w3.org/1999/xlink" width="200" height="200"><defs><style type="text/css"></style></defs><path d="M512 640v256h298.666667a21.333333 21.333333 0 0 1 0 42.666667H170.666667a21.333333 21.333333 0 0 1 0-42.666667h298.666666V640h-85.333333a21.333333 21.333333 0 0 1 0-42.666667h213.333333a21.333333 21.333333 0 0 1 0 42.666667h-85.333333zM472.448 171.114667A21.226667 21.226667 0 0 1 469.333333 160V106.666667a21.333333 21.333333 0 0 1 42.666667 0v53.333333c0 4.053333-1.130667 7.893333-3.114667 11.114667C700.714667 180.608 853.333333 339.136 853.333333 533.333333c0 97.493333-38.656 188.885333-106.24 256.426667-8.384 8.405333-17.173333 16.384-26.346666 23.914667a21.333333 21.333333 0 1 1-27.093334-32.96c8.106667-6.656 15.872-13.696 23.296-21.12A318.869333 318.869333 0 0 0 810.666667 533.333333c0-176.725333-143.274667-320-320-320-176.725333 0-320 143.274667-320 320 0 86.037333 34.090667 166.634667 93.717333 226.282667 7.424 7.402667 15.189333 14.442667 23.296 21.12a21.333333 21.333333 0 1 1-27.093333 32.938667A361.536 361.536 0 0 1 128 533.333333c0-194.197333 152.618667-352.725333 344.448-362.218666z" fill="#8a8a8a" p-id="1420"></path></svg>